# xmcd
#
# Track frame offsets: 
#        150
#        21107
#        40697
#        54367
#        74415
#        110032
#        140020
#        175422
#        219052
#        244487
#
# Disc length: 3588 seconds
#
# Revision: 0
# Processed by: cddbd v1.5.2PL0 Copyright (c) Steve Scherf et al.
# Submitted via: ExactAudioCopy v0.95b3
#
DISCID=900e020a
DTITLE=Grand Funk Railroad  - Grand Funk (1969)(2002 Capitol Rem.)  FL
DTITLE=AC
DYEAR=1900
DGENRE=
TTITLE0=01 - Got This Thing On The Move
TTITLE1=02 - Please Don't Worry
TTITLE2=03 - High Falootin' Woman
TTITLE3=04 - Mr. Limousine Driver
TTITLE4=05 - In Need
TTITLE5=06 - Winter And My Soul
TTITLE6=07 - Paranoid
TTITLE7=08 - Inside Looking Out
TTITLE8=09 - Nothing Is The Same (Demo)
TTITLE9=10 - Mr. Limousine Driver (Extended Version)
EXTD=
EXTT0=
EXTT1=
EXTT2=
EXTT3=
EXTT4=
EXTT5=
EXTT6=
EXTT7=
EXTT8=
EXTT9=
PLAYORDER=
